<svg xmlns="http://www.w3.org/2000/svg" xmlns:xlink="http://www.w3.org/1999/xlink" style="position:absolute; width: 0; height: 0"><symbol class="svg-github" viewBox="0 0 24 24" id="github"><path class="github-path-0" d="M12 .297c-6.63 0-12 5.373-12 12 0 5.303 3.438 9.8 8.205 11.385.6.113.82-.258.82-.577 0-.285-.01-1.04-.015-2.04-3.338.724-4.042-1.61-4.042-1.61C4.422 18.07 3.633 17.7 3.633 17.7c-1.087-.744.084-.729.084-.729 1.205.084 1.838 1.236 1.838 1.236 1.07 1.835 2.809 1.305 3.495.998.108-.776.417-1.305.76-1.605-2.665-.3-5.466-1.332-5.466-5.93 0-1.31.465-2.38 1.235-3.22-.135-.303-.54-1.523.105-3.176 0 0 1.005-.322 3.3 1.23.96-.267 1.98-.399 3-.405 1.02.006 2.04.138 3 .405 2.28-1.552 3.285-1.23 3.285-1.23.645 1.653.24 2.873.12 3.176.765.84 1.23 1.91 1.23 3.22 0 4.61-2.805 5.625-5.475 5.92.42.36.81 1.096.81 2.22 0 1.606-.015 2.896-.015 3.286 0 .315.21.69.825.57C20.565 22.092 24 17.592 24 12.297c0-6.627-5.373-12-12-12"></path></symbol><symbol class="svg-link-out" viewBox="0 0 512 512" id="link-out"><path class="link-out-path-0" d="M472.021 39.991c-53.325-53.311-139.774-53.311-193.084 0l-76.184 76.154c6.031-.656 12.125-.938 18.25-.938 19.28 0 38.028 3.063 55.777 8.968l43.17-43.155c14.827-14.843 34.545-22.999 55.513-22.999 20.97 0 40.688 8.156 55.515 22.999 14.828 14.812 22.981 34.499 22.981 55.498 0 20.968-8.153 40.686-22.981 55.498l-84.465 84.466C331.687 291.326 311.968 299.48 291 299.48c-21 0-40.686-8.154-55.528-22.998-7.219-7.188-12.843-15.563-16.718-24.688-9.625.531-18.624 4.531-25.499 11.405l-22.499 22.529c6.156 11.405 14.062 22.155 23.687 31.813 53.31 53.313 139.774 53.313 193.099 0l84.48-84.497c53.294-53.308 53.294-139.742-.001-193.053z"></path><path class="link-out-path-1" d="M291.905 396.76c-19.312 0-38.248-3.125-56.402-9.281l-43.467 43.469c-14.812 14.844-34.529 22.999-55.497 22.999-20.968 0-40.654-8.155-55.498-22.999-14.843-14.813-22.999-34.529-22.999-55.498s8.156-40.688 22.999-55.529l84.465-84.465c14.843-14.812 34.53-22.968 55.498-22.968 20.999 0 40.686 8.156 55.512 22.968 7.22 7.218 12.857 15.593 16.75 24.717 9.656-.5 18.671-4.531 25.546-11.405l22.468-22.499c-6.156-11.438-14.078-22.187-23.718-31.843-53.31-53.311-139.774-53.311-193.084 0l-84.465 84.497c-53.341 53.313-53.341 139.744 0 193.086 53.31 53.313 139.744 53.313 193.053 0l76.058-76.059c-5.671.529-11.405.813-17.187.813l-.032-.003z"></path></symbol><symbol class="svg-linkedin" viewBox="0 0 24 24" id="linkedin"><path class="linkedin-path-0" d="M20.447 20.452h-3.554v-5.569c0-1.328-.027-3.037-1.852-3.037-1.853 0-2.136 1.445-2.136 2.939v5.667H9.351V9h3.414v1.561h.046c.477-.9 1.637-1.85 3.37-1.85 3.601 0 4.267 2.37 4.267 5.455v6.286zM5.337 7.433c-1.144 0-2.063-.926-2.063-2.065 0-1.138.92-2.063 2.063-2.063 1.14 0 2.064.925 2.064 2.063 0 1.139-.925 2.065-2.064 2.065zm1.782 13.019H3.555V9h3.564v11.452zM22.225 0H1.771C.792 0 0 .774 0 1.729v20.542C0 23.227.792 24 1.771 24h20.451C23.2 24 24 23.227 24 22.271V1.729C24 .774 23.2 0 22.222 0h.003z"></path></symbol><symbol class="svg-question" viewBox="0 0 18 18" id="question"><g fill="#B4B8BC" fill-rule="evenodd" opacity=".7"><path class="question-path-0" d="M9 18A9 9 0 1 1 9 0a9 9 0 0 1 0 18zm0-1A8 8 0 1 0 9 1a8 8 0 0 0 0 16z"></path><path class="question-path-1" d="M8.19 10.898v-.375c0-.43.078-.787.234-1.072.156-.285.43-.58.82-.885.465-.367.765-.652.9-.855a1.29 1.29 0 0 0 .202-.727c0-.328-.11-.58-.328-.755-.22-.176-.534-.264-.944-.264-.37 0-.715.053-1.031.158a7.32 7.32 0 0 0-.926.38l-.492-1.03a5.158 5.158 0 0 1 2.549-.662c.765 0 1.373.187 1.822.562.45.375.674.893.674 1.553 0 .293-.043.553-.129.782a2.245 2.245 0 0 1-.39.653c-.173.207-.473.477-.899.809-.363.285-.606.521-.73.709-.123.187-.184.44-.184.756v.263H8.189zm-.24 1.87c0-.59.286-.885.86-.885.282 0 .497.077.645.231.149.155.223.372.223.654 0 .277-.075.497-.226.659-.15.162-.364.243-.641.243-.278 0-.49-.08-.64-.237-.148-.159-.222-.38-.222-.665z"></path></g></symbol></svg>